<svg width="19" height="19" viewBox="0 0 19 19" fill="none" xmlns="http://www.w3.org/2000/svg">
<path fill-rule="evenodd" clip-rule="evenodd" d="M0 0H18.3333V18.3333H0V0ZM13.2222 5.111C13.437 5.32579 13.437 5.67403 13.2222 5.88882L9.94437 9.16658L13.2222 12.4443C13.437 12.6592 13.437 13.0074 13.2222 13.2222C13.0074 13.437 12.6592 13.437 12.4443 13.2222L9.16658 9.94437L5.88882 13.2222C5.67403 13.437 5.32579 13.437 5.111 13.2222C4.89621 13.0074 4.89621 12.6592 5.111 12.4443L8.38878 9.16658L5.111 5.88882C4.89621 5.67403 4.89621 5.32579 5.111 5.111C5.32579 4.89621 5.67403 4.89621 5.88882 5.111L9.16658 8.38878L12.4443 5.111C12.6592 4.89621 13.0074 4.89621 13.2222 5.111Z" fill="white"/>
</svg>
