<svg width="991" height="953" viewBox="0 0 991 953" fill="none" xmlns="http://www.w3.org/2000/svg">
<g clip-path="url(#clip0_2355_324)">
<mask id="mask0_2355_324" style="mask-type:luminance" maskUnits="userSpaceOnUse" x="0" y="0" width="991" height="675">
<path d="M991 0H0V675H991V0Z" fill="white"/>
</mask>
<g mask="url(#mask0_2355_324)">
<path d="M208.887 183.851C215.671 182.679 221.534 187.619 221.911 193.354C220.906 196.954 222.456 197.54 224.885 199.13C231.083 203.149 233.846 210.182 235.563 217.047L10.7207 217.633L208.845 183.851H208.887Z" stroke="white" stroke-miterlimit="10"/>
<path d="M6.99335 235.13L2.76367 219.893L236.778 219.768L237.029 234.168L6.99335 235.13Z" stroke="white" stroke-miterlimit="10"/>
<path d="M18.0911 243.418C14.8246 240.404 10.0086 238.102 8.16602 237.809L237.071 236.26V243.083L18.0492 243.46L18.0911 243.418Z" stroke="white" stroke-miterlimit="10"/>
<path d="M21.5249 246.641L20.6455 245.888L236.861 245.637V246.641H21.5249Z" stroke="white" stroke-miterlimit="10"/>
<path d="M23.5769 278.707L23.4932 249.362L230.915 249.739L235.354 266.358L235.061 278.455L23.535 278.707H23.5769Z" stroke="white" stroke-miterlimit="10"/>
<path d="M229.491 598.018H25.0011L24.7917 557.832C24.3729 557.371 24.5823 556.576 25.6712 556.576L232.297 557.455C233.344 557.455 233.595 558.167 233.553 558.753C232.506 561.223 229.784 563.106 229.742 566.455L229.533 598.06H229.491V598.018Z" fill="white"/>
<path d="M24.4566 556.534L23.5771 278.706L234.307 278.455V286.199C237.741 288.167 240.631 290.804 241.468 295.283C243.101 300.223 239.961 301.52 240.17 304.45C240.086 307.716 241.594 310.06 241.594 310.06L239.165 557.413L24.4566 556.534Z" stroke="white" stroke-miterlimit="10"/>
<path d="M181.456 658.172H17.7974L17.6299 598.019H229.49L229.616 616.06H214.247L214.038 635.567H198.794L198.543 655.702L184.639 655.619L181.373 658.172H181.456Z" fill="white"/>
<path d="M275.766 298.214L242.054 298.13C241.468 294.446 240.84 291.516 238.243 288.921L278.865 289.005C276.855 291.893 276.101 293.567 275.808 298.214H275.766Z" stroke="white" stroke-miterlimit="10"/>
<path d="M241.887 301.312L275.013 301.437C275.473 301.437 275.934 301.73 276.143 302.149C277.525 304.953 276.562 307.13 275.934 308.135C275.683 308.47 275.306 308.679 274.887 308.679H242.013C241.678 308.721 241.343 308.595 241.133 308.386C239.877 307.005 239.877 303.111 240.966 301.772C241.175 301.479 241.552 301.353 241.929 301.353H241.887V301.312Z" stroke="white" stroke-miterlimit="10"/>
<path d="M241.594 310.479L275.348 310.604L277.86 557.372H239.165L241.594 310.479Z" stroke="white" stroke-miterlimit="10"/>
<path d="M277.651 560.595C278.949 560.595 280.038 562.939 280.415 564.697L236.652 564.781C236.82 563.525 237.448 560.595 239.123 560.595H277.651Z" stroke="white" stroke-miterlimit="10"/>
<path d="M284.058 567.251H233.009V595.925H284.058V567.251Z" fill="white"/>
<path d="M282.676 278.33H234.349V286.032H282.676V278.33Z" stroke="white" stroke-miterlimit="10"/>
<path d="M355.878 298.214L322.166 298.13C321.58 294.446 320.952 291.516 318.355 288.921L358.977 289.005C356.967 291.893 356.213 293.567 355.92 298.214H355.878Z" stroke="white" stroke-miterlimit="10"/>
<path d="M322.041 301.312L355.167 301.437C355.627 301.437 356.088 301.73 356.298 302.149C357.68 304.953 356.716 307.13 356.088 308.135C355.837 308.47 355.46 308.679 355.041 308.679H322.167C321.832 308.721 321.497 308.595 321.288 308.386C320.031 307.005 320.031 303.111 321.12 301.772C321.329 301.479 321.706 301.353 322.083 301.353H322.041V301.312Z" stroke="white" stroke-miterlimit="10"/>
<path d="M321.748 310.479L355.502 310.604L358.015 557.372H319.319L321.748 310.479Z" stroke="white" stroke-miterlimit="10"/>
<path d="M357.763 560.595C359.061 560.595 360.15 562.939 360.527 564.697L316.765 564.781C316.932 563.525 317.56 560.595 319.235 560.595H357.763Z" stroke="white" stroke-miterlimit="10"/>
<path d="M364.17 567.251H313.121V595.925H364.17V567.251Z" fill="white"/>
<path d="M362.788 278.33H314.461V286.032H362.788V278.33Z" stroke="white" stroke-miterlimit="10"/>
<path d="M207.296 548.33H24.4569L23.7031 304.911H207.296V548.33Z" stroke="white" stroke-miterlimit="10"/>
<path d="M757.154 599.902H233.847V616.06H757.154V599.902Z" fill="white"/>
<path d="M772.103 619.367H218.896V635.525H772.145V619.367H772.103Z" fill="white"/>
<path d="M787.599 639.418H203.359V655.576H787.557V639.418H787.599Z" fill="white"/>
<path d="M752.086 269.623H238.872V276.949H752.086V269.623Z" stroke="white" stroke-miterlimit="10"/>
<path d="M752.044 268.158L756.148 249.362H234.852L238.956 268.158H752.044Z" stroke="white" stroke-miterlimit="10"/>
<path d="M750.704 224.623H240.254V246.6H750.746V224.623H750.704Z" stroke="white" stroke-miterlimit="10"/>
<path d="M750.746 219.014H240.212V222.363H750.746V219.014Z" stroke="white" stroke-miterlimit="10"/>
<path d="M752.379 216.837C753.719 210.056 756.776 204.405 761.676 198.042H229.323C234.181 204.405 237.238 210.098 238.62 216.837H752.379Z" stroke="white" stroke-miterlimit="10"/>
<path d="M769.884 183.391H221.115V186.572H769.842V183.391H769.884Z" stroke="white" stroke-miterlimit="10"/>
<path d="M766.534 188.581H224.466V195.111H766.534V188.581Z" stroke="white" stroke-miterlimit="10"/>
<path d="M782.113 183.851C775.329 182.679 769.466 187.619 769.089 193.354C770.094 196.954 768.544 197.54 766.115 199.13C759.917 203.149 757.154 210.182 755.437 217.047L980.279 217.633L782.155 183.851H782.113Z" stroke="white" stroke-miterlimit="10"/>
<path d="M983.964 235.13L988.194 219.893L754.138 219.768L753.887 234.168L983.922 235.13H983.964Z" stroke="white" stroke-miterlimit="10"/>
<path d="M972.867 243.418C976.133 240.404 980.949 238.102 982.792 237.809L753.887 236.26V243.083L972.908 243.46H972.867V243.418Z" stroke="white" stroke-miterlimit="10"/>
<path d="M969.474 246.641L970.354 245.888L754.18 245.637V246.641H969.516H969.474Z" stroke="white" stroke-miterlimit="10"/>
<path d="M967.38 278.707V249.362L760.001 249.739L755.562 266.358L755.855 278.455L967.38 278.707Z" stroke="white" stroke-miterlimit="10"/>
<path d="M761.467 598.018H965.999L966.208 557.832C966.627 557.371 966.418 556.576 965.329 556.576L758.703 557.455C757.656 557.455 757.405 558.167 757.447 558.753C758.494 561.223 761.216 563.106 761.258 566.455L761.467 598.06V598.018Z" fill="white"/>
<path d="M966.501 556.534L967.38 278.706L756.65 278.455V286.199C753.216 288.167 750.327 290.804 749.489 295.283C747.856 300.223 750.997 301.52 750.787 304.45C750.871 307.716 749.364 310.06 749.364 310.06L751.793 557.413L966.501 556.534Z" stroke="white" stroke-miterlimit="10"/>
<path d="M809.5 658.172H973.201L973.369 598.019H761.466L761.341 616.06H776.71L776.919 635.567H792.121L792.372 655.702L806.276 655.619L809.5 658.172Z" fill="white"/>
<path d="M715.234 298.214L748.945 298.13C749.532 294.446 750.16 291.516 752.756 288.921L712.135 289.005C714.145 291.893 714.899 293.567 715.192 298.214H715.234Z" stroke="white" stroke-miterlimit="10"/>
<path d="M749.07 301.312L715.945 301.437C715.484 301.437 715.023 301.73 714.814 302.149C713.432 304.953 714.395 307.13 715.024 308.135C715.275 308.47 715.652 308.679 716.07 308.679H748.945C749.28 308.721 749.615 308.595 749.824 308.386C751.08 307.005 751.08 303.111 749.992 301.772C749.782 301.479 749.405 301.353 749.028 301.353L749.07 301.312Z" stroke="white" stroke-miterlimit="10"/>
<path d="M749.406 310.479L715.652 310.604L713.14 557.372H751.835L749.406 310.479Z" stroke="white" stroke-miterlimit="10"/>
<path d="M713.349 560.595C712.051 560.595 710.962 562.939 710.585 564.697L754.347 564.781C754.18 563.525 753.552 560.595 751.877 560.595H713.349Z" stroke="white" stroke-miterlimit="10"/>
<path d="M757.991 567.251H706.941V595.925H757.991V567.251Z" fill="white"/>
<path d="M756.608 278.33H708.281V286.032H756.608V278.33Z" stroke="white" stroke-miterlimit="10"/>
<path d="M635.079 298.214L668.791 298.13C669.377 294.446 670.006 291.516 672.602 288.921L631.98 289.005C633.991 291.893 634.744 293.567 635.038 298.214H635.079Z" stroke="white" stroke-miterlimit="10"/>
<path d="M668.916 301.312L635.791 301.437C635.33 301.437 634.869 301.73 634.66 302.149C633.278 304.953 634.241 307.13 634.869 308.135C635.12 308.47 635.497 308.679 635.916 308.679H668.79C669.125 308.721 669.46 308.595 669.67 308.386C670.926 307.005 670.926 303.111 669.837 301.772C669.628 301.479 669.251 301.353 668.874 301.353L668.916 301.312Z" stroke="white" stroke-miterlimit="10"/>
<path d="M669.252 310.479L635.498 310.604L632.985 557.372H671.681L669.252 310.479Z" stroke="white" stroke-miterlimit="10"/>
<path d="M633.195 560.595C631.896 560.595 630.808 562.939 630.431 564.697L674.193 564.781C674.026 563.525 673.397 560.595 671.722 560.595H633.195Z" stroke="white" stroke-miterlimit="10"/>
<path d="M677.878 567.251H626.829V595.925H677.878V567.251Z" fill="white"/>
<path d="M676.496 278.33H628.169V286.032H676.496V278.33Z" stroke="white" stroke-miterlimit="10"/>
<path d="M783.704 548.33H966.543L967.297 304.911H783.704V548.33Z" stroke="white" stroke-miterlimit="10"/>
<path d="M691.112 178.995C645.758 158.86 600.195 136.632 553.585 117.377C542.445 112.311 530.887 106.87 519.245 100.842L520.459 90.7951L716.406 179.958H272.793L405.714 120.097L470.122 90.5439C470.415 92.7625 471.63 102.097 471.63 102.097C416.183 127.507 363.166 150.781 307.468 177.07C305.458 178.074 304.411 178.074 302.61 178.577" stroke="white" stroke-miterlimit="10"/>
<path d="M522.72 73.2979L521.171 85.8979L725.535 179.958H759.708L522.762 73.2979H522.72Z" stroke="white" stroke-miterlimit="10"/>
<path d="M467.902 73.3389L231.124 179.832L264.501 180.167L469.493 85.604L467.902 73.3389Z" stroke="white" stroke-miterlimit="10"/>
<path d="M523.349 68.6092L778.888 182.888L778.804 170.749L524.856 56.7627L523.349 68.6092Z" stroke="white" stroke-miterlimit="10"/>
<path d="M465.808 57.0557L212.488 170.539L212.698 182.93L467.358 68.8603L465.808 57.0557Z" stroke="white" stroke-miterlimit="10"/>
<path d="M516.732 119.26H473.849L458.689 2.09277H531.976L516.774 119.26H516.732Z" fill="white"/>
</g>
<path d="M456.26 390.516C450.188 398.847 448.345 407.302 448.094 408.726H495.541V372.14C474.142 372.265 462.374 382.186 456.26 390.516Z" fill="white"/>
<path d="M536.791 438.865H455.632V585H536.791V438.865ZM535.116 583.577H457.433V440.289H535.116V583.577Z" fill="white"/>
<path d="M534.028 441.418H458.563V582.446H534.028V441.418ZM479.461 496.213C479.461 494.078 479.879 491.985 480.717 490.018C481.513 488.134 482.685 486.418 484.109 484.953C485.533 483.488 487.25 482.358 489.176 481.562C493.113 479.888 497.636 479.888 501.572 481.562C503.457 482.358 505.174 483.53 506.639 484.953C508.105 486.418 509.236 488.092 510.031 490.018C510.869 491.985 511.288 494.078 511.288 496.213V501.027H510.157V496.213C510.157 494.204 509.78 492.278 508.985 490.437C508.231 488.678 507.184 487.088 505.802 485.748C504.462 484.409 502.87 483.32 501.111 482.567C497.468 481.018 493.238 481.018 489.595 482.567C487.836 483.32 486.245 484.367 484.905 485.748C483.565 487.088 482.476 488.678 481.722 490.437C480.968 492.278 480.549 494.204 480.549 496.213V501.027H479.419V496.213H479.461ZM495.374 489.516C491.521 489.516 488.381 492.655 488.381 496.464V501.069H487.25V496.464C487.25 492.027 490.893 488.385 495.332 488.385C499.771 488.385 503.415 492.027 503.415 496.464V501.069H502.284V496.464C502.284 492.613 499.143 489.516 495.332 489.516H495.374ZM517.276 530.371C517.276 532.758 515.35 534.683 512.963 534.683H477.785C475.398 534.683 473.472 532.758 473.472 530.371V505.381C473.472 502.995 475.398 501.069 477.785 501.069H512.963C515.35 501.069 517.276 502.995 517.276 505.381V530.371Z" fill="white"/>
<path d="M512.963 502.158H477.785C476.026 502.158 474.561 503.581 474.561 505.381V530.372C474.561 532.13 475.984 533.595 477.785 533.595H512.963C514.722 533.595 516.187 532.172 516.187 530.372V505.381C516.187 503.623 514.763 502.158 512.963 502.158ZM498.054 525.056H492.694L494.034 517.479L493.866 517.395C492.652 516.809 491.856 515.554 491.856 514.214C491.856 512.288 493.448 510.698 495.416 510.698C497.384 510.698 498.975 512.288 498.975 514.214C498.975 515.554 498.18 516.809 496.965 517.395L496.798 517.479L498.138 525.056H498.054Z" fill="white"/>
<path d="M535.953 390.516C529.965 382.186 518.197 372.265 496.337 372.14V408.726H543.785C543.575 407.344 541.942 398.847 535.953 390.516Z" fill="white"/>
<path d="M561.918 414.795C561.918 414.795 560.076 401.232 551.072 387.962C542.738 375.739 526.448 361.13 495.96 361.13C465.473 361.13 449.769 375.739 441.31 387.962C432.138 401.232 430.003 414.669 430.003 414.795L429.919 415.255H438.378V598.604H553.501V415.255H561.96V414.837L561.918 414.795ZM537.88 586.172H454.501V437.776H537.88V586.172ZM446.754 409.855L446.921 408.767C447.005 408.349 448.638 399.014 455.339 389.888C461.621 381.265 473.765 371.009 495.919 371.009C518.072 371.009 530.677 381.265 536.833 389.888C543.534 399.181 544.916 408.683 544.916 408.809L545.041 409.897H446.712L446.754 409.855Z" fill="white"/>
<path d="M150.761 431.623H132.795V454.018H150.761V431.623Z" fill="white"/>
<path d="M79.2754 370.382V486.21H154.404V370.382H79.2754ZM103.397 485.791H80.9505V458.917H103.397V485.791ZM103.397 456.279H80.9505V429.405H103.397V456.279ZM103.397 426.893H80.9505V400.019H103.397V426.893ZM103.397 397.717H80.9505V370.842H103.397V397.717ZM128.189 485.791H105.742V458.917H128.189V485.791ZM128.189 456.279H105.742V429.405H128.189V456.279ZM128.189 426.893H105.742V400.019H128.189V426.893ZM128.189 397.717H105.742V370.842H128.189V397.717ZM153.022 485.791H130.576V458.917H153.022V485.791ZM153.022 456.279H130.576V429.405H153.022V456.279ZM153.022 426.893H130.576V400.019H153.022V426.893ZM153.022 397.717H130.576V370.842H153.022V397.717Z" fill="white"/>
<path d="M126.012 373.019H108.046V395.414H126.012V373.019Z" fill="white"/>
<path d="M150.761 373.019H132.795V395.414H150.761V373.019Z" fill="white"/>
<path d="M150.761 402.321H132.795V424.717H150.761V402.321Z" fill="white"/>
<path d="M126.012 402.321H108.046V424.717H126.012V402.321Z" fill="white"/>
<path d="M150.761 461.135H132.795V483.53H150.761V461.135Z" fill="white"/>
<path d="M101.136 402.321H83.1699V424.717H101.136V402.321Z" fill="white"/>
<path d="M101.136 431.623H83.1699V454.018H101.136V431.623Z" fill="white"/>
<path d="M101.136 461.135H83.1699V483.53H101.136V461.135Z" fill="white"/>
<path d="M126.012 461.135H108.046V483.53H126.012V461.135Z" fill="white"/>
<path d="M101.136 373.019H83.1699V395.414H101.136V373.019Z" fill="white"/>
<path d="M126.012 431.623H108.046V454.018H126.012V431.623Z" fill="white"/>
<path d="M74.292 491.526H159.388V365.107H74.292V491.526ZM74.8364 366.028H158.844V490.689H74.8364V366.028Z" fill="white"/>
<path d="M61.1006 513.125H172.915V502.367H168.978V502.493H65.0371V502.367H61.1006V513.125Z" fill="white"/>
<path d="M175.134 359.33H168.936V500.191H175.134V515.428H58.8389V500.191H65.0368V359.33H58.8389V342.67H175.134V359.33Z" stroke="white" stroke-miterlimit="10"/>
<path d="M166.758 359.456H67.2979V500.149H166.758V359.456ZM72.1138 493.744V362.847H161.691V493.744H72.1138Z" fill="white"/>
<path d="M172.915 344.847H61.1006V357.028H172.915V344.847Z" fill="white"/>
<path d="M168.978 357.195H65.0371V359.246H168.978V357.195Z" fill="white"/>
<path d="M166.717 500.233H67.2566V500.107H65.0371V502.368H168.978V500.107H166.759V500.233H166.717Z" fill="white"/>
<path d="M77.0554 488.386V368.205H156.582V488.386V368.079H76.9717V488.386H77.0136H77.0554Z" fill="white"/>
<path d="M910.134 431.623H892.168V454.018H910.134V431.623Z" fill="white"/>
<path d="M838.648 370.382V486.21H913.778V370.382H838.648ZM862.77 485.791H840.324V458.917H862.77V485.791ZM862.77 456.279H840.324V429.405H862.77V456.279ZM862.77 426.893H840.324V400.019H862.77V426.893ZM862.77 397.717H840.324V370.842H862.77V397.717ZM887.562 485.791H865.115V458.917H887.562V485.791ZM887.562 456.279H865.115V429.405H887.562V456.279ZM887.562 426.893H865.115V400.019H887.562V426.893ZM887.562 397.717H865.115V370.842H887.562V397.717ZM912.396 485.791H889.949V458.917H912.396V485.791ZM912.396 456.279H889.949V429.405H912.396V456.279ZM912.396 426.893H889.949V400.019H912.396V426.893ZM912.396 397.717H889.949V370.842H912.396V397.717Z" fill="white"/>
<path d="M885.385 373.019H867.419V395.414H885.385V373.019Z" fill="white"/>
<path d="M910.134 373.019H892.168V395.414H910.134V373.019Z" fill="white"/>
<path d="M910.134 402.321H892.168V424.717H910.134V402.321Z" fill="white"/>
<path d="M885.385 402.321H867.419V424.717H885.385V402.321Z" fill="white"/>
<path d="M910.134 461.135H892.168V483.53H910.134V461.135Z" fill="white"/>
<path d="M860.509 402.321H842.543V424.717H860.509V402.321Z" fill="white"/>
<path d="M860.509 431.623H842.543V454.018H860.509V431.623Z" fill="white"/>
<path d="M860.509 461.135H842.543V483.53H860.509V461.135Z" fill="white"/>
<path d="M885.385 461.135H867.419V483.53H885.385V461.135Z" fill="white"/>
<path d="M860.509 373.019H842.543V395.414H860.509V373.019Z" fill="white"/>
<path d="M885.385 431.623H867.419V454.018H885.385V431.623Z" fill="white"/>
<path d="M833.665 491.526H918.761V365.107H833.665V491.526ZM834.209 366.028H918.217V490.689H834.209V366.028Z" fill="white"/>
<path d="M820.474 513.125H932.288V502.367H928.351V502.493H824.41V502.367H820.474V513.125Z" fill="white"/>
<path d="M934.507 359.33H928.309V500.191H934.507V515.428H818.212V500.191H824.41V359.33H818.212V342.67H934.507V359.33Z" stroke="white" stroke-miterlimit="10"/>
<path d="M926.131 359.456H826.671V500.149H926.131V359.456ZM831.487 493.744V362.847H921.064V493.744H831.487Z" fill="white"/>
<path d="M932.288 344.847H820.474V357.028H932.288V344.847Z" fill="white"/>
<path d="M928.351 357.195H824.41V359.246H928.351V357.195Z" fill="white"/>
<path d="M926.09 500.233H826.63V500.107H824.41V502.368H928.351V500.107H926.132V500.233H926.09Z" fill="white"/>
<path d="M836.428 488.386V368.205H915.955V488.386V368.079H836.345V488.386H836.387H836.428Z" fill="white"/>
</g>
<path d="M231.697 829.49V838.8H217.067V878H206.147V838.8H191.517V829.49H231.697ZM255.352 850.42C254.418 850.187 253.322 849.953 252.062 849.72C250.802 849.44 249.448 849.3 248.002 849.3C247.348 849.3 246.555 849.37 245.622 849.51C244.735 849.603 244.058 849.72 243.592 849.86V878H233.162V843.14C235.028 842.487 237.222 841.88 239.742 841.32C242.308 840.713 245.155 840.41 248.282 840.41C248.842 840.41 249.518 840.457 250.312 840.55C251.105 840.597 251.898 840.69 252.692 840.83C253.485 840.923 254.278 841.063 255.072 841.25C255.865 841.39 256.542 841.577 257.102 841.81L255.352 850.42ZM294.123 876.74C292.35 877.253 290.063 877.72 287.263 878.14C284.463 878.607 281.523 878.84 278.443 878.84C275.316 878.84 272.703 878.42 270.603 877.58C268.55 876.74 266.916 875.573 265.703 874.08C264.49 872.54 263.626 870.72 263.113 868.62C262.6 866.52 262.343 864.21 262.343 861.69V841.18H272.773V860.43C272.773 863.79 273.216 866.217 274.103 867.71C274.99 869.203 276.646 869.95 279.073 869.95C279.82 869.95 280.613 869.927 281.453 869.88C282.293 869.787 283.04 869.693 283.693 869.6V841.18H294.123V876.74ZM314.484 870.51C316.397 870.51 317.75 870.323 318.544 869.95C319.337 869.577 319.734 868.853 319.734 867.78C319.734 866.94 319.22 866.217 318.194 865.61C317.167 864.957 315.604 864.233 313.504 863.44C311.87 862.833 310.377 862.203 309.024 861.55C307.717 860.897 306.597 860.127 305.664 859.24C304.73 858.307 304.007 857.21 303.494 855.95C302.98 854.69 302.724 853.173 302.724 851.4C302.724 847.947 304.007 845.217 306.574 843.21C309.14 841.203 312.664 840.2 317.144 840.2C319.384 840.2 321.53 840.41 323.584 840.83C325.637 841.203 327.27 841.623 328.484 842.09L326.664 850.21C325.45 849.79 324.12 849.417 322.674 849.09C321.274 848.763 319.687 848.6 317.914 848.6C314.647 848.6 313.014 849.51 313.014 851.33C313.014 851.75 313.084 852.123 313.224 852.45C313.364 852.777 313.644 853.103 314.064 853.43C314.484 853.71 315.044 854.037 315.744 854.41C316.49 854.737 317.424 855.11 318.544 855.53C320.83 856.37 322.72 857.21 324.214 858.05C325.707 858.843 326.874 859.73 327.714 860.71C328.6 861.643 329.207 862.693 329.534 863.86C329.907 865.027 330.094 866.38 330.094 867.92C330.094 871.56 328.717 874.313 325.964 876.18C323.257 878.047 319.407 878.98 314.414 878.98C311.147 878.98 308.417 878.7 306.224 878.14C304.077 877.58 302.584 877.113 301.744 876.74L303.494 868.27C305.267 868.97 307.087 869.53 308.954 869.95C310.82 870.323 312.664 870.51 314.484 870.51ZM337.538 832.01L347.968 830.33V841.18H360.498V849.86H347.968V862.81C347.968 865.003 348.342 866.753 349.088 868.06C349.882 869.367 351.445 870.02 353.778 870.02C354.898 870.02 356.042 869.927 357.208 869.74C358.422 869.507 359.518 869.203 360.498 868.83L361.968 876.95C360.708 877.463 359.308 877.907 357.768 878.28C356.228 878.653 354.338 878.84 352.098 878.84C349.252 878.84 346.895 878.467 345.028 877.72C343.162 876.927 341.668 875.853 340.548 874.5C339.428 873.1 338.635 871.42 338.168 869.46C337.748 867.5 337.538 865.33 337.538 862.95V832.01ZM365.875 859.87C365.875 856.603 366.365 853.757 367.345 851.33C368.371 848.857 369.701 846.803 371.335 845.17C372.968 843.537 374.835 842.3 376.935 841.46C379.081 840.62 381.275 840.2 383.515 840.2C388.741 840.2 392.871 841.81 395.905 845.03C398.938 848.203 400.455 852.893 400.455 859.1C400.455 859.707 400.431 860.383 400.385 861.13C400.338 861.83 400.291 862.46 400.245 863.02H376.585C376.818 865.167 377.821 866.87 379.595 868.13C381.368 869.39 383.748 870.02 386.735 870.02C388.648 870.02 390.515 869.857 392.335 869.53C394.201 869.157 395.718 868.713 396.885 868.2L398.285 876.67C397.725 876.95 396.978 877.23 396.045 877.51C395.111 877.79 394.061 878.023 392.895 878.21C391.775 878.443 390.561 878.63 389.255 878.77C387.948 878.91 386.641 878.98 385.335 878.98C382.021 878.98 379.128 878.49 376.655 877.51C374.228 876.53 372.198 875.2 370.565 873.52C368.978 871.793 367.788 869.763 366.995 867.43C366.248 865.097 365.875 862.577 365.875 859.87ZM390.375 855.88C390.328 854.993 390.165 854.13 389.885 853.29C389.651 852.45 389.255 851.703 388.695 851.05C388.181 850.397 387.505 849.86 386.665 849.44C385.871 849.02 384.868 848.81 383.655 848.81C382.488 848.81 381.485 849.02 380.645 849.44C379.805 849.813 379.105 850.327 378.545 850.98C377.985 851.633 377.541 852.403 377.215 853.29C376.935 854.13 376.725 854.993 376.585 855.88H390.375ZM417.394 859.31C417.394 862.53 418.117 865.12 419.564 867.08C421.01 869.04 423.157 870.02 426.004 870.02C426.937 870.02 427.8 869.997 428.594 869.95C429.387 869.857 430.04 869.763 430.554 869.67V850.7C429.9 850.28 429.037 849.93 427.964 849.65C426.937 849.37 425.887 849.23 424.814 849.23C419.867 849.23 417.394 852.59 417.394 859.31ZM440.984 876.81C440.05 877.09 438.977 877.37 437.764 877.65C436.55 877.883 435.267 878.093 433.914 878.28C432.607 878.467 431.254 878.607 429.854 878.7C428.5 878.84 427.194 878.91 425.934 878.91C422.9 878.91 420.194 878.467 417.814 877.58C415.434 876.693 413.427 875.433 411.794 873.8C410.16 872.12 408.9 870.113 408.014 867.78C407.174 865.4 406.754 862.74 406.754 859.8C406.754 856.813 407.127 854.13 407.874 851.75C408.62 849.323 409.694 847.27 411.094 845.59C412.494 843.91 414.197 842.627 416.204 841.74C418.257 840.853 420.59 840.41 423.204 840.41C424.65 840.41 425.934 840.55 427.054 840.83C428.22 841.11 429.387 841.507 430.554 842.02V825.36L440.984 823.68V876.81ZM477.436 853.71C477.436 856.09 477.716 858.237 478.276 860.15C478.883 862.063 479.723 863.72 480.796 865.12C481.916 866.473 483.269 867.523 484.856 868.27C486.443 869.017 488.263 869.39 490.316 869.39C492.323 869.39 494.119 869.017 495.706 868.27C497.339 867.523 498.693 866.473 499.766 865.12C500.886 863.72 501.726 862.063 502.286 860.15C502.893 858.237 503.196 856.09 503.196 853.71C503.196 851.33 502.893 849.183 502.286 847.27C501.726 845.31 500.886 843.653 499.766 842.3C498.693 840.9 497.339 839.827 495.706 839.08C494.119 838.333 492.323 837.96 490.316 837.96C488.263 837.96 486.443 838.357 484.856 839.15C483.269 839.897 481.916 840.97 480.796 842.37C479.723 843.723 478.883 845.38 478.276 847.34C477.716 849.253 477.436 851.377 477.436 853.71ZM514.466 853.71C514.466 857.863 513.836 861.527 512.576 864.7C511.363 867.827 509.683 870.463 507.536 872.61C505.389 874.71 502.823 876.297 499.836 877.37C496.896 878.443 493.723 878.98 490.316 878.98C487.003 878.98 483.876 878.443 480.936 877.37C477.996 876.297 475.429 874.71 473.236 872.61C471.043 870.463 469.316 867.827 468.056 864.7C466.796 861.527 466.166 857.863 466.166 853.71C466.166 849.557 466.819 845.917 468.126 842.79C469.433 839.617 471.183 836.957 473.376 834.81C475.616 832.663 478.183 831.053 481.076 829.98C484.016 828.907 487.096 828.37 490.316 828.37C493.629 828.37 496.756 828.907 499.696 829.98C502.636 831.053 505.203 832.663 507.396 834.81C509.589 836.957 511.316 839.617 512.576 842.79C513.836 845.917 514.466 849.557 514.466 853.71ZM554.299 876.74C552.525 877.253 550.239 877.72 547.439 878.14C544.639 878.607 541.699 878.84 538.619 878.84C535.492 878.84 532.879 878.42 530.779 877.58C528.725 876.74 527.092 875.573 525.879 874.08C524.665 872.54 523.802 870.72 523.289 868.62C522.775 866.52 522.519 864.21 522.519 861.69V841.18H532.949V860.43C532.949 863.79 533.392 866.217 534.279 867.71C535.165 869.203 536.822 869.95 539.249 869.95C539.995 869.95 540.789 869.927 541.629 869.88C542.469 869.787 543.215 869.693 543.869 869.6V841.18H554.299V876.74ZM563.739 832.01L574.169 830.33V841.18H586.699V849.86H574.169V862.81C574.169 865.003 574.543 866.753 575.289 868.06C576.083 869.367 577.646 870.02 579.979 870.02C581.099 870.02 582.243 869.927 583.409 869.74C584.623 869.507 585.719 869.203 586.699 868.83L588.169 876.95C586.909 877.463 585.509 877.907 583.969 878.28C582.429 878.653 580.539 878.84 578.299 878.84C575.453 878.84 573.096 878.467 571.229 877.72C569.363 876.927 567.869 875.853 566.749 874.5C565.629 873.1 564.836 871.42 564.369 869.46C563.949 867.5 563.739 865.33 563.739 862.95V832.01ZM592.076 859.59C592.076 856.93 592.496 854.433 593.336 852.1C594.222 849.72 595.482 847.667 597.116 845.94C598.749 844.167 600.732 842.767 603.066 841.74C605.399 840.713 608.059 840.2 611.046 840.2C613.006 840.2 614.802 840.387 616.436 840.76C618.069 841.087 619.656 841.577 621.196 842.23L619.026 850.56C618.046 850.187 616.972 849.86 615.806 849.58C614.639 849.3 613.332 849.16 611.886 849.16C608.806 849.16 606.496 850.117 604.956 852.03C603.462 853.943 602.716 856.463 602.716 859.59C602.716 862.903 603.416 865.47 604.816 867.29C606.262 869.11 608.759 870.02 612.306 870.02C613.566 870.02 614.919 869.903 616.366 869.67C617.812 869.437 619.142 869.063 620.356 868.55L621.826 877.09C620.612 877.603 619.096 878.047 617.276 878.42C615.456 878.793 613.449 878.98 611.256 878.98C607.896 878.98 605.002 878.49 602.576 877.51C600.149 876.483 598.142 875.107 596.556 873.38C595.016 871.653 593.872 869.623 593.126 867.29C592.426 864.91 592.076 862.343 592.076 859.59ZM661.488 859.52C661.488 862.413 661.068 865.073 660.228 867.5C659.388 869.88 658.175 871.933 656.588 873.66C655.002 875.34 653.088 876.647 650.848 877.58C648.655 878.513 646.182 878.98 643.428 878.98C640.722 878.98 638.248 878.513 636.008 877.58C633.815 876.647 631.925 875.34 630.338 873.66C628.752 871.933 627.515 869.88 626.628 867.5C625.742 865.073 625.298 862.413 625.298 859.52C625.298 856.627 625.742 853.99 626.628 851.61C627.562 849.23 628.822 847.2 630.408 845.52C632.042 843.84 633.955 842.533 636.148 841.6C638.388 840.667 640.815 840.2 643.428 840.2C646.088 840.2 648.515 840.667 650.708 841.6C652.948 842.533 654.862 843.84 656.448 845.52C658.035 847.2 659.272 849.23 660.158 851.61C661.045 853.99 661.488 856.627 661.488 859.52ZM650.848 859.52C650.848 856.3 650.195 853.78 648.888 851.96C647.628 850.093 645.808 849.16 643.428 849.16C641.048 849.16 639.205 850.093 637.898 851.96C636.592 853.78 635.938 856.3 635.938 859.52C635.938 862.74 636.592 865.307 637.898 867.22C639.205 869.087 641.048 870.02 643.428 870.02C645.808 870.02 647.628 869.087 648.888 867.22C650.195 865.307 650.848 862.74 650.848 859.52ZM689.798 858.47C689.798 855.11 689.355 852.73 688.468 851.33C687.628 849.93 686.158 849.23 684.058 849.23C683.405 849.23 682.728 849.277 682.028 849.37C681.328 849.417 680.651 849.487 679.998 849.58V878H669.568V842.44C670.455 842.207 671.481 841.973 672.648 841.74C673.861 841.46 675.121 841.227 676.428 841.04C677.781 840.807 679.158 840.643 680.558 840.55C681.958 840.41 683.335 840.34 684.688 840.34C687.348 840.34 689.495 840.69 691.128 841.39C692.808 842.043 694.185 842.837 695.258 843.77C696.751 842.697 698.455 841.857 700.368 841.25C702.328 840.643 704.125 840.34 705.758 840.34C708.698 840.34 711.101 840.76 712.968 841.6C714.881 842.393 716.398 843.537 717.518 845.03C718.638 846.523 719.408 848.297 719.828 850.35C720.248 852.403 720.458 854.69 720.458 857.21V878H710.028V858.47C710.028 855.11 709.585 852.73 708.698 851.33C707.858 849.93 706.388 849.23 704.288 849.23C703.728 849.23 702.935 849.37 701.908 849.65C700.928 849.93 700.111 850.28 699.458 850.7C699.785 851.773 699.995 852.917 700.088 854.13C700.181 855.297 700.228 856.557 700.228 857.91V878H689.798V858.47ZM728.179 859.87C728.179 856.603 728.669 853.757 729.649 851.33C730.676 848.857 732.006 846.803 733.639 845.17C735.273 843.537 737.139 842.3 739.239 841.46C741.386 840.62 743.579 840.2 745.819 840.2C751.046 840.2 755.176 841.81 758.209 845.03C761.243 848.203 762.759 852.893 762.759 859.1C762.759 859.707 762.736 860.383 762.689 861.13C762.643 861.83 762.596 862.46 762.549 863.02H738.889C739.123 865.167 740.126 866.87 741.899 868.13C743.673 869.39 746.053 870.02 749.039 870.02C750.953 870.02 752.819 869.857 754.639 869.53C756.506 869.157 758.023 868.713 759.189 868.2L760.589 876.67C760.029 876.95 759.283 877.23 758.349 877.51C757.416 877.79 756.366 878.023 755.199 878.21C754.079 878.443 752.866 878.63 751.559 878.77C750.253 878.91 748.946 878.98 747.639 878.98C744.326 878.98 741.433 878.49 738.959 877.51C736.533 876.53 734.503 875.2 732.869 873.52C731.283 871.793 730.093 869.763 729.299 867.43C728.553 865.097 728.179 862.577 728.179 859.87ZM752.679 855.88C752.633 854.993 752.469 854.13 752.189 853.29C751.956 852.45 751.559 851.703 750.999 851.05C750.486 850.397 749.809 849.86 748.969 849.44C748.176 849.02 747.173 848.81 745.959 848.81C744.793 848.81 743.789 849.02 742.949 849.44C742.109 849.813 741.409 850.327 740.849 850.98C740.289 851.633 739.846 852.403 739.519 853.29C739.239 854.13 739.029 854.993 738.889 855.88H752.679ZM781.378 870.51C783.292 870.51 784.645 870.323 785.438 869.95C786.232 869.577 786.628 868.853 786.628 867.78C786.628 866.94 786.115 866.217 785.088 865.61C784.062 864.957 782.498 864.233 780.398 863.44C778.765 862.833 777.272 862.203 775.918 861.55C774.612 860.897 773.492 860.127 772.558 859.24C771.625 858.307 770.902 857.21 770.388 855.95C769.875 854.69 769.618 853.173 769.618 851.4C769.618 847.947 770.902 845.217 773.468 843.21C776.035 841.203 779.558 840.2 784.038 840.2C786.278 840.2 788.425 840.41 790.478 840.83C792.532 841.203 794.165 841.623 795.378 842.09L793.558 850.21C792.345 849.79 791.015 849.417 789.568 849.09C788.168 848.763 786.582 848.6 784.808 848.6C781.542 848.6 779.908 849.51 779.908 851.33C779.908 851.75 779.978 852.123 780.118 852.45C780.258 852.777 780.538 853.103 780.958 853.43C781.378 853.71 781.938 854.037 782.638 854.41C783.385 854.737 784.318 855.11 785.438 855.53C787.725 856.37 789.615 857.21 791.108 858.05C792.602 858.843 793.768 859.73 794.608 860.71C795.495 861.643 796.102 862.693 796.428 863.86C796.802 865.027 796.988 866.38 796.988 867.92C796.988 871.56 795.612 874.313 792.858 876.18C790.152 878.047 786.302 878.98 781.308 878.98C778.042 878.98 775.312 878.7 773.118 878.14C770.972 877.58 769.478 877.113 768.638 876.74L770.388 868.27C772.162 868.97 773.982 869.53 775.848 869.95C777.715 870.323 779.558 870.51 781.378 870.51ZM349.546 925.545C349.546 929.385 350.101 932.94 351.211 936.21C352.321 939.48 353.956 942.51 356.116 945.3L353.146 947.325C350.806 944.475 348.916 941.205 347.476 937.515C346.066 933.795 345.361 929.805 345.361 925.545C345.361 921.285 346.066 917.31 347.476 913.62C348.916 909.9 350.806 906.615 353.146 903.765L356.116 905.79C353.956 908.58 352.321 911.61 351.211 914.88C350.101 918.15 349.546 921.705 349.546 925.545ZM381.629 907.815V911.595H371.819V939H367.454V911.595H357.644V907.815H381.629ZM385.968 939V904.8L390.153 904.08V916.05C390.933 915.75 391.758 915.525 392.628 915.375C393.528 915.195 394.413 915.105 395.283 915.105C397.143 915.105 398.688 915.375 399.918 915.915C401.148 916.425 402.123 917.16 402.843 918.12C403.593 919.05 404.118 920.175 404.418 921.495C404.718 922.815 404.868 924.27 404.868 925.86V939H400.683V926.76C400.683 925.32 400.578 924.09 400.368 923.07C400.188 922.05 399.873 921.225 399.423 920.595C398.973 919.965 398.373 919.515 397.623 919.245C396.873 918.945 395.943 918.795 394.833 918.795C394.383 918.795 393.918 918.825 393.438 918.885C392.958 918.945 392.493 919.02 392.043 919.11C391.623 919.17 391.233 919.245 390.873 919.335C390.543 919.425 390.303 919.5 390.153 919.56V939H385.968ZM410.371 927.345C410.371 925.275 410.671 923.475 411.271 921.945C411.871 920.385 412.666 919.095 413.656 918.075C414.646 917.055 415.786 916.29 417.076 915.78C418.366 915.27 419.686 915.015 421.036 915.015C424.186 915.015 426.601 916.005 428.281 917.985C429.961 919.935 430.801 922.92 430.801 926.94C430.801 927.12 430.801 927.36 430.801 927.66C430.801 927.93 430.786 928.185 430.756 928.425H414.736C414.916 930.855 415.621 932.7 416.851 933.96C418.081 935.22 420.001 935.85 422.611 935.85C424.081 935.85 425.311 935.73 426.301 935.49C427.321 935.22 428.086 934.965 428.596 934.725L429.181 938.235C428.671 938.505 427.771 938.79 426.481 939.09C425.221 939.39 423.781 939.54 422.161 939.54C420.121 939.54 418.351 939.24 416.851 938.64C415.381 938.01 414.166 937.155 413.206 936.075C412.246 934.995 411.526 933.72 411.046 932.25C410.596 930.75 410.371 929.115 410.371 927.345ZM426.436 925.05C426.466 923.16 425.986 921.615 424.996 920.415C424.036 919.185 422.701 918.57 420.991 918.57C420.031 918.57 419.176 918.765 418.426 919.155C417.706 919.515 417.091 919.995 416.581 920.595C416.071 921.195 415.666 921.885 415.366 922.665C415.096 923.445 414.916 924.24 414.826 925.05H426.436ZM470.583 907.815C469.653 908.835 468.603 909.975 467.433 911.235C466.263 912.465 465.033 913.74 463.743 915.06C462.483 916.35 461.223 917.625 459.963 918.885C458.703 920.145 457.518 921.315 456.408 922.395C457.698 923.295 459.063 924.405 460.503 925.725C461.943 927.045 463.353 928.455 464.733 929.955C466.113 931.455 467.403 932.985 468.603 934.545C469.833 936.105 470.853 937.59 471.663 939H466.533C465.633 937.59 464.598 936.18 463.428 934.77C462.258 933.33 461.013 931.965 459.693 930.675C458.403 929.355 457.083 928.14 455.733 927.03C454.413 925.92 453.123 924.975 451.863 924.195V939H447.498V907.815H451.863V921.585C452.913 920.595 454.068 919.485 455.328 918.255C456.588 916.995 457.833 915.735 459.063 914.475C460.293 913.215 461.448 912.015 462.528 910.875C463.638 909.705 464.568 908.685 465.318 907.815H470.583ZM473.257 927.345C473.257 925.275 473.557 923.475 474.157 921.945C474.757 920.385 475.552 919.095 476.542 918.075C477.532 917.055 478.672 916.29 479.962 915.78C481.252 915.27 482.572 915.015 483.922 915.015C487.072 915.015 489.487 916.005 491.167 917.985C492.847 919.935 493.687 922.92 493.687 926.94C493.687 927.12 493.687 927.36 493.687 927.66C493.687 927.93 493.672 928.185 493.642 928.425H477.622C477.802 930.855 478.507 932.7 479.737 933.96C480.967 935.22 482.887 935.85 485.497 935.85C486.967 935.85 488.197 935.73 489.187 935.49C490.207 935.22 490.972 934.965 491.482 934.725L492.067 938.235C491.557 938.505 490.657 938.79 489.367 939.09C488.107 939.39 486.667 939.54 485.047 939.54C483.007 939.54 481.237 939.24 479.737 938.64C478.267 938.01 477.052 937.155 476.092 936.075C475.132 934.995 474.412 933.72 473.932 932.25C473.482 930.75 473.257 929.115 473.257 927.345ZM489.322 925.05C489.352 923.16 488.872 921.615 487.882 920.415C486.922 919.185 485.587 918.57 483.877 918.57C482.917 918.57 482.062 918.765 481.312 919.155C480.592 919.515 479.977 919.995 479.467 920.595C478.957 921.195 478.552 921.885 478.252 922.665C477.982 923.445 477.802 924.24 477.712 925.05H489.322ZM496.954 943.365C497.284 943.515 497.704 943.65 498.214 943.77C498.754 943.92 499.279 943.995 499.789 943.995C501.439 943.995 502.729 943.62 503.659 942.87C504.589 942.15 505.429 940.965 506.179 939.315C504.289 935.715 502.519 931.905 500.869 927.885C499.249 923.835 497.899 919.74 496.819 915.6H501.319C501.649 916.95 502.039 918.405 502.489 919.965C502.969 921.525 503.494 923.13 504.064 924.78C504.634 926.43 505.249 928.08 505.909 929.73C506.569 931.38 507.259 932.97 507.979 934.5C509.119 931.35 510.109 928.23 510.949 925.14C511.789 922.05 512.584 918.87 513.334 915.6H517.654C516.574 920.01 515.374 924.255 514.054 928.335C512.734 932.385 511.309 936.18 509.779 939.72C509.179 941.07 508.549 942.225 507.889 943.185C507.259 944.175 506.554 944.985 505.774 945.615C504.994 946.245 504.109 946.71 503.119 947.01C502.159 947.31 501.064 947.46 499.834 947.46C499.504 947.46 499.159 947.43 498.799 947.37C498.439 947.34 498.079 947.28 497.719 947.19C497.389 947.13 497.074 947.055 496.774 946.965C496.504 946.875 496.309 946.8 496.189 946.74L496.954 943.365ZM527.512 935.985C529.222 935.985 530.482 935.76 531.292 935.31C532.132 934.86 532.552 934.14 532.552 933.15C532.552 932.13 532.147 931.32 531.337 930.72C530.527 930.12 529.192 929.445 527.332 928.695C526.432 928.335 525.562 927.975 524.722 927.615C523.912 927.225 523.207 926.775 522.607 926.265C522.007 925.755 521.527 925.14 521.167 924.42C520.807 923.7 520.627 922.815 520.627 921.765C520.627 919.695 521.392 918.06 522.922 916.86C524.452 915.63 526.537 915.015 529.177 915.015C529.837 915.015 530.497 915.06 531.157 915.15C531.817 915.21 532.432 915.3 533.002 915.42C533.572 915.51 534.067 915.615 534.487 915.735C534.937 915.855 535.282 915.96 535.522 916.05L534.757 919.65C534.307 919.41 533.602 919.17 532.642 918.93C531.682 918.66 530.527 918.525 529.177 918.525C528.007 918.525 526.987 918.765 526.117 919.245C525.247 919.695 524.812 920.415 524.812 921.405C524.812 921.915 524.902 922.365 525.082 922.755C525.292 923.145 525.592 923.505 525.982 923.835C526.402 924.135 526.912 924.42 527.512 924.69C528.112 924.96 528.832 925.245 529.672 925.545C530.782 925.965 531.772 926.385 532.642 926.805C533.512 927.195 534.247 927.66 534.847 928.2C535.477 928.74 535.957 929.4 536.287 930.18C536.617 930.93 536.782 931.86 536.782 932.97C536.782 935.13 535.972 936.765 534.352 937.875C532.762 938.985 530.482 939.54 527.512 939.54C525.442 939.54 523.822 939.36 522.652 939C521.482 938.67 520.687 938.415 520.267 938.235L521.032 934.635C521.512 934.815 522.277 935.085 523.327 935.445C524.377 935.805 525.772 935.985 527.512 935.985ZM546.065 915.6H554.93V919.11H546.065V929.91C546.065 931.08 546.155 932.055 546.335 932.835C546.515 933.585 546.785 934.185 547.145 934.635C547.505 935.055 547.955 935.355 548.495 935.535C549.035 935.715 549.665 935.805 550.385 935.805C551.645 935.805 552.65 935.67 553.4 935.4C554.18 935.1 554.72 934.89 555.02 934.77L555.83 938.235C555.41 938.445 554.675 938.7 553.625 939C552.575 939.33 551.375 939.495 550.025 939.495C548.435 939.495 547.115 939.3 546.065 938.91C545.045 938.49 544.22 937.875 543.59 937.065C542.96 936.255 542.51 935.265 542.24 934.095C542 932.895 541.88 931.515 541.88 929.955V909.075L546.065 908.355V915.6ZM580.295 927.3C580.295 929.16 580.025 930.84 579.485 932.34C578.945 933.84 578.18 935.13 577.19 936.21C576.23 937.29 575.075 938.13 573.725 938.73C572.375 939.3 570.905 939.585 569.315 939.585C567.725 939.585 566.255 939.3 564.905 938.73C563.555 938.13 562.385 937.29 561.395 936.21C560.435 935.13 559.685 933.84 559.145 932.34C558.605 930.84 558.335 929.16 558.335 927.3C558.335 925.47 558.605 923.805 559.145 922.305C559.685 920.775 560.435 919.47 561.395 918.39C562.385 917.31 563.555 916.485 564.905 915.915C566.255 915.315 567.725 915.015 569.315 915.015C570.905 915.015 572.375 915.315 573.725 915.915C575.075 916.485 576.23 917.31 577.19 918.39C578.18 919.47 578.945 920.775 579.485 922.305C580.025 923.805 580.295 925.47 580.295 927.3ZM575.93 927.3C575.93 924.66 575.33 922.575 574.13 921.045C572.96 919.485 571.355 918.705 569.315 918.705C567.275 918.705 565.655 919.485 564.455 921.045C563.285 922.575 562.7 924.66 562.7 927.3C562.7 929.94 563.285 932.04 564.455 933.6C565.655 935.13 567.275 935.895 569.315 935.895C571.355 935.895 572.96 935.13 574.13 933.6C575.33 932.04 575.93 929.94 575.93 927.3ZM586.183 916.275C587.143 916.035 588.418 915.78 590.008 915.51C591.598 915.24 593.428 915.105 595.498 915.105C597.358 915.105 598.903 915.375 600.133 915.915C601.363 916.425 602.338 917.16 603.058 918.12C603.808 919.05 604.333 920.175 604.633 921.495C604.933 922.815 605.083 924.27 605.083 925.86V939H600.898V926.76C600.898 925.32 600.793 924.09 600.583 923.07C600.403 922.05 600.088 921.225 599.638 920.595C599.188 919.965 598.588 919.515 597.838 919.245C597.088 918.945 596.158 918.795 595.048 918.795C594.598 918.795 594.133 918.81 593.653 918.84C593.173 918.87 592.708 918.915 592.258 918.975C591.838 919.005 591.448 919.05 591.088 919.11C590.758 919.17 590.518 919.215 590.368 919.245V939H586.183V916.275ZM610.718 927.345C610.718 925.275 611.018 923.475 611.618 921.945C612.218 920.385 613.013 919.095 614.003 918.075C614.993 917.055 616.133 916.29 617.423 915.78C618.713 915.27 620.033 915.015 621.383 915.015C624.533 915.015 626.948 916.005 628.628 917.985C630.308 919.935 631.148 922.92 631.148 926.94C631.148 927.12 631.148 927.36 631.148 927.66C631.148 927.93 631.133 928.185 631.103 928.425H615.083C615.263 930.855 615.968 932.7 617.198 933.96C618.428 935.22 620.348 935.85 622.958 935.85C624.428 935.85 625.658 935.73 626.648 935.49C627.668 935.22 628.433 934.965 628.943 934.725L629.528 938.235C629.018 938.505 628.118 938.79 626.828 939.09C625.568 939.39 624.128 939.54 622.508 939.54C620.468 939.54 618.698 939.24 617.198 938.64C615.728 938.01 614.513 937.155 613.553 936.075C612.593 934.995 611.873 933.72 611.393 932.25C610.943 930.75 610.718 929.115 610.718 927.345ZM626.783 925.05C626.813 923.16 626.333 921.615 625.343 920.415C624.383 919.185 623.048 918.57 621.338 918.57C620.378 918.57 619.523 918.765 618.773 919.155C618.053 919.515 617.438 919.995 616.928 920.595C616.418 921.195 616.013 921.885 615.713 922.665C615.443 923.445 615.263 924.24 615.173 925.05H626.783ZM640.445 925.545C640.445 921.705 639.89 918.15 638.78 914.88C637.67 911.61 636.035 908.58 633.875 905.79L636.845 903.765C639.185 906.615 641.06 909.9 642.47 913.62C643.91 917.31 644.63 921.285 644.63 925.545C644.63 929.805 643.91 933.795 642.47 937.515C641.06 941.205 639.185 944.475 636.845 947.325L633.875 945.3C636.035 942.51 637.67 939.48 638.78 936.21C639.89 932.94 640.445 929.385 640.445 925.545Z" fill="white"/>
<defs>
<clipPath id="clip0_2355_324">
<rect width="991" height="675" fill="white"/>
</clipPath>
</defs>
</svg>
